#!OML:ASF E:\Steps\Project 1\Capture day 1\Session 2\Subject.ASF
:FULLY-SPECIFIED
:DEGREES
234
root 8.95671 14.4435 32.0637 -130.497 0.778626 179.499
lowerback -6.19087 -1.56529 -3.40078
upperback -0.777847 -1.81171 0.21188
thorax 2.78142 -0.917819 1.97283
lowerneck 1.39116 -8.8422 -2.65363
upperneck -28.1219 -7.68696 11.4029
head -8.28094 -3.23946 4.67584
rclavicle -6.75868e-015 3.18055e-015
rhumerus -63.8362 -0.603489 -65.9218
rradius 29.3689
rwrist 0.532464
rhand -10.0486 -53.6551
rfingers 7.12502
rthumb 15.9368 -83.0194
lclavicle -6.75868e-015 3.18055e-015
lhumerus -70.4791 -23.2331 82.8085
lradius 45.7091
lwrist 9.00227
lhand -27.7605 -16.3567
lfingers 7.12502
lthumb -1.1546 13.6199
rfemur -80.8238 6.13605 14.7175
rtibia 58.8883
rfoot -37.4735 -12.7127
rtoes -36.0489
lfemur -81.8759 -2.92045 -17.6225
ltibia 61.5123
lfoot -28.0617 3.46863
ltoes -47.0136
235
root 8.96205 14.3151 32.0734 -129.815 1.11353 179.508
lowerback -5.74666 -1.36248 -3.51439
upperback -0.613921 -1.54427 -0.0881401
thorax 2.68063 -0.786862 1.75786
lowerneck 1.6826 -9.27961 -2.11261
upperneck -28.8754 -8.06328 11.7471
head -8.57968 -3.46272 4.77231
rclavicle -5.96354e-015 6.36111e-015
rhumerus -64.7669 -1.10904 -65.992
rradius 29.6109
rwrist 0.553206
rhand -10.3876 -53.833
rfingers 7.12502
rthumb 15.6103 -83.2231
lclavicle -5.96354e-015 6.36111e-015
lhumerus -71.5632 -23.1175 82.6552
lradius 46.1784
lwrist 9.13034
lhand -27.7371 -16.6398
lfingers 7.12502
lthumb -1.13202 13.337
rfemur -82.5549 6.25631 14.49
rtibia 60.476
rfoot -38.0183 -12.7058
rtoes -35.7882
lfemur -83.6304 -2.70036 -17.8841
ltibia 63.2959
lfoot -28.5359 4.01169
ltoes -47.7294
236
root 8.96912 14.1827 32.0733 -129.272 1.58393 179.578
lowerback -5.32308 -1.27375 -3.72342
upperback -0.385323 -1.43362 -0.139219
thorax 2.67682 -0.740596 1.83697
lowerneck 2.03849 -9.45824 -2.33371
upperneck -29.7001 -8.17681 11.9751
head -8.89786 -3.47183 4.95082
rclavicle -3.18055e-015 7.95139e-015
rhumerus -65.3418 -0.924379 -66.0397
rradius 29.8757
rwrist 0.471254
rhand -10.5611 -53.5244
rfingers 7.12502
rthumb 15.4433 -82.9275
lclavicle -3.18055e-015 7.95139e-015
lhumerus -72.5211 -22.3962 82.7942
lradius 46.5114
lwrist 9.33905
lhand -27.7303 -17.2695
lfingers 7.12502
lthumb -1.1254 12.7073
rfemur -84.1221 6.58839 14.1408
rtibia 62.0914
rfoot -38.6206 -12.8158
rtoes -35.5768
lfemur -85.1265 -2.32884 -18.1338
ltibia 64.9092
lfoot -29.1436 4.12195
ltoes -46.9147
237
root 8.96991 14.0534 32.0742 -128.857 1.72281 179.704
lowerback -4.57139 -1.18781 -3.60166
upperback -0.355599 -1.36306 -0.166722
thorax 2.27814 -0.700499 1.75987
lowerneck 2.32615 -9.54519 -2.42114
upperneck -30.0357 -8.28009 12.0341
head -9.05256 -3.50922 5.02465
rclavicle -7.15625e-015 3.97569e-015
rhumerus -66.3533 -0.719701 -66.2164
rradius 30.2928
rwrist 0.384571
rhand -10.7912 -53.4834
rfingers 7.12502
rthumb 15.2216 -82.9034
lclavicle -7.15625e-015 3.97569e-015
lhumerus -73.7402 -22.042 83.217
lradius 46.7114
lwrist 9.78398
lhand -27.72 -17.3275
lfingers 7.12502
lthumb -1.1155 12.6493
rfemur -85.4602 6.90859 13.9359
rtibia 63.4928
rfoot -39.1278 -13.1277
rtoes -35.4607
lfemur -86.5773 -2.13037 -18.1696
ltibia 66.6325
lfoot -29.7889 3.89147
ltoes -45.1981
238
root 8.97525 13.9207 32.0791 -128.445 1.59202 180.166
lowerback -3.79007 -1.07005 -3.20683
upperback -0.360452 -1.26624 -0.0833602
thorax 1.82258 -0.645743 1.64481
lowerneck 2.82804 -9.62687 -2.13806
upperneck -30.527 -8.32376 12.0611
head -9.33712 -3.55802 5.04753
rclavicle 2.38542e-015 -9.14409e-015
rhumerus -67.3156 -0.635147 -66.4075
rradius 30.6152
rwrist 0.310369
rhand -10.8218 -53.4885
rfingers 7.12502
rthumb 15.1922 -82.9107
lclavicle 2.38542e-015 -9.14409e-015
lhumerus -74.8102 -21.6901 83.5628
lradius 46.794
lwrist 10.2817
lhand -27.7921 -17.1019
lfingers 7.12502
lthumb -1.1851 12.8746
rfemur -86.646 7.44905 14.1741
rtibia 64.6988
rfoot -39.5588 -13.4255
rtoes -35.3548
lfemur -88.172 -1.68185 -17.7991
ltibia 68.5511
lfoot -30.4541 3.77542
ltoes -43.7444
